<svg xmlns="http://www.w3.org/2000/svg" version="1.1" xmlns:xlink="http://www.w3.org/1999/xlink" xmlns:svgjs="http://svgjs.com/svgjs" width="1000" height="1000" preserveAspectRatio="none" viewBox="0 0 1000 1000">
    <g mask="url(&quot;#SvgjsMask1279&quot;)" fill="none">
        <rect width="1000" height="1000" x="0" y="0" fill="rgba(30, 41, 59, 1)"></rect>
        <path d="M0,410.122C74.944,401.399,122.484,329.789,188.707,293.634C261.829,253.712,370.979,260.91,409.041,186.803C446.851,113.188,396.486,24.462,366.594,-52.708C341.839,-116.614,299.472,-168.925,252.073,-218.423C206.823,-265.677,157.063,-305.449,97.874,-333.329C30.003,-365.298,-42.057,-409.275,-114.888,-391.274C-188.145,-373.168,-234.649,-302.585,-277.587,-240.531C-317.019,-183.543,-343.909,-119.391,-350.732,-50.428C-357.355,16.513,-337.066,80.384,-315.647,144.151C-291.89,214.879,-276.275,293.035,-219.219,341.112C-159.424,391.496,-77.668,419.162,0,410.122" fill="#161e2b"></path>
        <path d="M1000 1335.404C1065.857 1332.341 1128.791 1320.588 1189.4859999999999 1294.846 1260.377 1264.78 1337.724 1237.734 1380.7939999999999 1173.903 1426.6309999999999 1105.972 1440.029 1019.505 1430.1689999999999 938.151 1420.188 855.8009999999999 1386.025 774.686 1325.531 717.9259999999999 1267.5810000000001 663.553 1185.883 645.8489999999999 1107.152 635.075 1036.86 625.456 970.066 648.06 900.081 659.707 819.143 673.1759999999999 727.02 656.3199999999999 663.969 708.827 598.927 762.992 577.946 853.806 566.329 937.647 554.7529999999999 1021.193 553.784 1111.794 598.198 1183.497 640.982 1252.57 722.836 1284.284 798.836 1313.017 863.249 1337.3690000000001 931.211 1338.604 1000 1335.404" fill="#26354c"></path>
    </g>
    <defs>
        <mask id="SvgjsMask1279">
            <rect width="1000" height="1000" fill="#ffffff"></rect>
        </mask>
    </defs>
</svg>